<svg xmlns="http://www.w3.org/2000/svg" viewBox="0 0 1200 420">
  <defs>
    <linearGradient id="bg3" x1="0" y1="0" x2="1" y2="1">
      <stop offset="0" stop-color="#241522"/>
      <stop offset="1" stop-color="#0d0b18"/>
    </linearGradient>
    <radialGradient id="glow3" cx="50%" cy="50%" r="50%">
      <stop offset="0" stop-color="#ff8fa3" stop-opacity="0.3"/>
      <stop offset="1" stop-color="#ff8fa3" stop-opacity="0"/>
    </radialGradient>
    <radialGradient id="glow3b" cx="50%" cy="50%" r="50%">
      <stop offset="0" stop-color="#8b7cf6" stop-opacity="0.4"/>
      <stop offset="1" stop-color="#8b7cf6" stop-opacity="0"/>
    </radialGradient>
    <linearGradient id="badge3" x1="0" y1="0" x2="1" y2="1">
      <stop offset="0" stop-color="#a78bfa"/>
      <stop offset="1" stop-color="#6d5ce8"/>
    </linearGradient>
  </defs>
  <rect width="1200" height="420" fill="url(#bg3)"/>
  <circle cx="880" cy="130" r="240" fill="url(#glow3b)"/>
  <circle cx="300" cy="300" r="220" fill="url(#glow3)"/>

  <g transform="translate(370,150)">
    <path d="M20 100v-15a90 90 0 0 1 180 0v15" fill="none" stroke="#a78bfa" stroke-width="7" stroke-linecap="round"/>
    <rect x="4" y="90" width="34" height="52" rx="14" fill="#1c1832" stroke="#8b7cf6" stroke-width="3"/>
    <rect x="182" y="90" width="34" height="52" rx="14" fill="#1c1832" stroke="#8b7cf6" stroke-width="3"/>
  </g>
  <g transform="translate(340,240)">
    <rect x="0" y="0" width="280" height="66" rx="12" fill="#171429" stroke="#8b7cf6" stroke-width="3"/>
    <g fill="#2a2350">
      <rect x="16" y="14" width="20" height="16" rx="3"/><rect x="40" y="14" width="20" height="16" rx="3"/><rect x="64" y="14" width="20" height="16" rx="3"/><rect x="88" y="14" width="20" height="16" rx="3"/><rect x="112" y="14" width="20" height="16" rx="3"/><rect x="136" y="14" width="20" height="16" rx="3"/><rect x="160" y="14" width="20" height="16" rx="3"/><rect x="184" y="14" width="20" height="16" rx="3"/><rect x="208" y="14" width="20" height="16" rx="3"/><rect x="232" y="14" width="20" height="16" rx="3"/>
      <rect x="60" y="36" width="150" height="16" rx="5"/>
    </g>
  </g>

  <g transform="translate(830,90)">
    <circle cx="0" cy="0" r="90" fill="url(#badge3)"/>
    <text x="0" y="-8" text-anchor="middle" font-family="Inter, sans-serif" font-size="44" font-weight="800" fill="#fff">-30%</text>
    <text x="0" y="30" text-anchor="middle" font-family="Inter, sans-serif" font-size="20" font-weight="700" fill="#e9e4ff" letter-spacing="2">SALE</text>
  </g>

  <g opacity="0.9">
    <circle cx="140" cy="120" r="6" fill="#7ce8b0"/>
    <circle cx="1080" cy="280" r="5" fill="#ffcf7a"/>
    <circle cx="980" cy="330" r="6" fill="#ff8fa3"/>
  </g>
</svg>
